REM MD5 165f6e1d2d21f30f63c368639e53aeb8
FILE "Riot (Europe).bin" BINARY
  TRACK 01 MODE2/2352
    INDEX 01 00:00:00
  TRACK 02 AUDIO
    INDEX 00 17:53:50
    INDEX 01 17:55:50
  TRACK 03 AUDIO
    INDEX 00 20:56:13
    INDEX 01 20:58:13
  TRACK 04 AUDIO
    INDEX 00 22:19:70
    INDEX 01 22:21:70
  TRACK 05 AUDIO
    INDEX 00 24:36:73
    INDEX 01 24:38:73
  TRACK 06 AUDIO
    INDEX 00 27:17:37
    INDEX 01 27:19:37
REM LEADOUT 30:29:54
